<svg xmlns="http://www.w3.org/2000/svg" xmlns:xlink="http://www.w3.org/1999/xlink" viewBox="0 0 605.51 125"><defs><clipPath id="ab24fd86-dbe5-4d7c-81c0-32ce63267e86"><path d="M66.67,0V58.33H125A58.34,58.34,0,0,0,66.67,0ZM58.33,8.33a58.34,58.34,0,0,0-47.71,91.9L0,125l24.77-10.62a58.34,58.34,0,0,0,91.9-47.71H58.33ZM31.77,64.58a16.15,16.15,0,1,1,6.91-30.72h-.14A8.86,8.86,0,1,0,47.29,44,16.1,16.1,0,0,1,31.77,64.58Z" style="fill:none"/></clipPath></defs><g id="b0a26fa4-77de-4104-80ed-f33adef6ebe2" data-name="レイヤー 2"><g id="b9943a9d-c196-4549-a66d-ddbfccff0fba" data-name="レイヤー 1"><circle cx="32.89" cy="48.21" r="18.35" style="fill:#fff"/><g style="clip-path:url(#ab24fd86-dbe5-4d7c-81c0-32ce63267e86)"><path d="M66.67,8.33a50,50,0,0,1,50,50H125A58.34,58.34,0,0,0,66.67,0Z" style="fill:#db062c"/><path d="M66.67,16.67a41.66,41.66,0,0,1,41.66,41.66h8.34a50,50,0,0,0-50-50Z" style="fill:#ef7a00"/><path d="M66.67,25A33.33,33.33,0,0,1,100,58.33h8.33A41.66,41.66,0,0,0,66.67,16.67Z" style="fill:#f3eb1c"/><path d="M66.67,33.33a25,25,0,0,1,25,25H100A33.33,33.33,0,0,0,66.67,25Z" style="fill:#009c4d"/><path d="M66.67,41.67A16.66,16.66,0,0,1,83.33,58.33h8.34a25,25,0,0,0-25-25Z" style="fill:#4fc2f1"/><path d="M66.67,50A8.33,8.33,0,0,1,75,58.33h8.33A16.66,16.66,0,0,0,66.67,41.67Z" style="fill:#0065b2"/><path d="M66.67,58.33H75A8.33,8.33,0,0,0,66.67,50Z" style="fill:#643791"/><path d="M58.33,66.67V8.33a58.34,58.34,0,0,0-47.71,91.9L0,125l24.77-10.62a58.34,58.34,0,0,0,91.9-47.71ZM31.77,64.58a16.15,16.15,0,1,1,6.91-30.72h-.14A8.86,8.86,0,1,0,47.29,44,16.1,16.1,0,0,1,31.77,64.58Z" style="fill:#2d4b71"/></g><path d="M155.43,96.89V47.42l19.48,41.91c2.37,5.16,6.16,7.56,11.92,7.56,7.43,0,12-4.7,12-12.26V28.7H184.66V77.94l-19.1-41.21a13.14,13.14,0,0,0-12.37-8c-7.34,0-11.89,4.84-11.89,12.64V96.89" style="fill:#0065b2"/><polyline points="222.34 96.93 222.34 28.66 208.05 28.66 208.05 96.93" style="fill:#0065b2"/><path d="M274.66,28.59v45c0,6.34-3.23,9.42-9.87,9.42h-9.94c-8.18,0-9.13-4.27-9.13-7.48V66.75l-14.2,0v9.42C231.52,89.2,240.18,97,254.7,97h10c14.71,0,24.22-9,24.22-23V28.59" style="fill:#4fc2f1"/><path d="M321.59,97.08h39.78c13.28,0,21.53-7.88,21.53-20.56V74c0-11.18-8.21-19-20-19H341.7c-4.25,0-5.75-2.57-5.75-4.78V48c0-3.32,2.4-5.46,6.13-5.46l40.82.56V29.07l-40.82-.56c-14.16,0-20.49,9.69-20.49,19.3v2.24c0,11,8,18.69,19.36,18.69h21.61c5.77,0,6.06,4.8,6.06,5.76v2c0,4.67-2.12,6.58-7.33,6.58h-39.7" style="fill:#009c4d"/><path d="M448.68,97V51.58c0-15.06-7.94-23-22.95-23H415c-15,0-22.88,8-22.88,23V97h14.06V80.22h28.34V97m0-30.73H406.14V51.58c0-6.34,2.55-9,8.52-9h11.22c6,0,8.6,2.71,8.6,9Z" style="fill:#009c4d"/><path d="M472,96.89V47.42l19.48,41.91c2.37,5.16,6.16,7.56,11.92,7.56,7.42,0,12-4.7,12-12.26V28.7H501.23V77.94l-19.1-41.22a13.16,13.16,0,0,0-12.38-8c-7.33,0-11.88,4.84-11.88,12.64V96.89" style="fill:#ef7a00"/><polyline points="312.41 96.93 312.41 28.66 298.12 28.66 298.12 96.93" style="fill:#4fc2f1"/><path d="M567.76,28.59v45c0,6.34-3.23,9.42-9.87,9.42H548c-8.18,0-9.12-4.27-9.12-7.48V66.75l-14.21,0v9.42C524.62,89.2,533.28,97,547.8,97h10C572.53,97,582,88,582,74V28.59" style="fill:#db062c"/><polyline points="605.51 96.93 605.51 28.66 591.23 28.66 591.23 96.93" style="fill:#db062c"/></g></g></svg>