<?xml version="1.0" encoding="utf-8"?>
<!-- Generator: Adobe Illustrator 27.2.0, SVG Export Plug-In . SVG Version: 6.00 Build 0)  -->
<svg version="1.1" id="レイヤー_1" xmlns="http://www.w3.org/2000/svg" xmlns:xlink="http://www.w3.org/1999/xlink" x="0px"
	 y="0px" viewBox="0 0 17.5 16.2" style="enable-background:new 0 0 17.5 16.2;" xml:space="preserve">
<style type="text/css">
	.st0{fill:none;stroke:url(#SVGID_1_);stroke-width:2;stroke-linecap:round;stroke-linejoin:round;}
	.st1{fill:url(#SVGID_00000121260529351299248560000004600931330117249156_);}
	.st2{fill:url(#SVGID_00000070090988541667841490000004714444628961077653_);}
	.st3{fill:url(#SVGID_00000073681487729911214380000008115906117262030720_);}
</style>
<linearGradient id="SVGID_1_" gradientUnits="userSpaceOnUse" x1="0.469" y1="10.0605" x2="14.7914" y2="11.554" gradientTransform="matrix(1 0 0 -1 0 17.6458)">
	<stop  offset="0" style="stop-color:#005C8F"/>
	<stop  offset="0.7969" style="stop-color:#B61CFF"/>
	<stop  offset="1" style="stop-color:#FF004D"/>
</linearGradient>
<path class="st0" d="M1,1h1.8l2.8,11.7h8.7"/>
<linearGradient id="SVGID_00000147215605018476673380000005860001191998684040_" gradientUnits="userSpaceOnUse" x1="5.8497" y1="2.4757" x2="8.4211" y2="2.7118" gradientTransform="matrix(1 0 0 -1 0 17.6458)">
	<stop  offset="0" style="stop-color:#005C8F"/>
	<stop  offset="0.7969" style="stop-color:#B61CFF"/>
	<stop  offset="1" style="stop-color:#FF004D"/>
</linearGradient>
<path style="fill:url(#SVGID_00000147215605018476673380000005860001191998684040_);" d="M7.1,16.2c0.7,0,1.2-0.5,1.2-1.2
	c0-0.7-0.5-1.2-1.2-1.2s-1.2,0.5-1.2,1.2C5.9,15.7,6.5,16.2,7.1,16.2z"/>
<linearGradient id="SVGID_00000040576531626612484870000009199645252026912935_" gradientUnits="userSpaceOnUse" x1="10.9956" y1="2.4757" x2="13.567" y2="2.7118" gradientTransform="matrix(1 0 0 -1 0 17.6458)">
	<stop  offset="0" style="stop-color:#005C8F"/>
	<stop  offset="0.7969" style="stop-color:#B61CFF"/>
	<stop  offset="1" style="stop-color:#FF004D"/>
</linearGradient>
<path style="fill:url(#SVGID_00000040576531626612484870000009199645252026912935_);" d="M12.3,16.2c0.7,0,1.2-0.5,1.2-1.2
	c0-0.7-0.5-1.2-1.2-1.2s-1.2,0.5-1.2,1.2C11.1,15.7,11.6,16.2,12.3,16.2z"/>
<linearGradient id="SVGID_00000008830236746107994500000001601906674890473348_" gradientUnits="userSpaceOnUse" x1="3.126" y1="9.4454" x2="17.8157" y2="12.0742" gradientTransform="matrix(1 0 0 -1 0 17.6458)">
	<stop  offset="0" style="stop-color:#005C8F"/>
	<stop  offset="0.7969" style="stop-color:#B61CFF"/>
	<stop  offset="1" style="stop-color:#FF004D"/>
</linearGradient>
<path style="fill:url(#SVGID_00000008830236746107994500000001601906674890473348_);" d="M3.6,3.6h13.1c0.6,0,0.9,0.6,0.7,1.1
	l-2.2,5.5c-0.1,0.3-0.4,0.5-0.7,0.5H5.2L3.6,3.6z"/>
</svg>
